<svg width="24" height="17" viewBox="-3.5 0 24 17" fill="none" xmlns="http://www.w3.org/2000/svg">
<path d="M8.77041 2.45393L9.20001 2.89393L9.62881 2.45393C10.0968 1.97473 11.168 1.12593 12.452 0.766728C13.692 0.421128 15.1288 0.525128 16.4984 1.92673C17.8712 3.33153 17.9784 4.81553 17.636 6.09873C17.284 7.42033 16.4504 8.51953 15.9832 8.99793L11.9904 13.0859L9.75281 15.3755L9.20001 15.9419L8.64721 15.3755L6.40962 13.0851L2.41761 8.99793C1.94961 8.51953 1.11681 7.42033 0.764015 6.09873C0.422415 4.81553 0.528815 3.33073 1.90081 1.92673C3.27041 0.525128 4.70801 0.421128 5.94721 0.766728C7.23122 1.12513 8.30241 1.97393 8.77041 2.45393Z" fill="#BF134F" stroke="#BF134F" stroke-width="1.2"/>
</svg>