<svg width="24" height="24" viewBox="-2 -2 24 24" fill="none" xmlns="http://www.w3.org/2000/svg">
  <defs>
    <mask id="cutoutMask">
      <!-- Основной круг - белый (видимый) -->
      <path d="M9.71429 19.4286C15.0792 19.4286 19.4286 15.0792 19.4286 9.71429C19.4286 4.34935 15.0792 0 9.71429 0C4.34935 0 0 4.34935 0 9.71429C0 15.0792 4.34935 19.4286 9.71429 19.4286Z" fill="white"/>
      <!-- Внутренний элемент - черный (прозрачный) -->
      <path fill-rule="evenodd" clip-rule="evenodd" d="M4.55212 9.17475C6.28625 8.44046 8.02515 7.71747 9.76869 7.00581C12.2529 6.00789 12.7686 5.83568 13.1051 5.8295C13.1793 5.82862 13.3453 5.84628 13.4522 5.93017C13.5422 6.00082 13.567 6.0962 13.5793 6.1642C13.5917 6.23132 13.6058 6.3841 13.5944 6.50332C13.4601 7.8695 12.8773 11.1821 12.5814 12.7116C12.4551 13.359 12.2087 13.5762 11.9694 13.5974C11.4501 13.6433 11.0554 13.2653 10.5529 12.9474C9.76516 12.4493 9.32095 12.1394 8.55705 11.6528C7.67394 11.0911 8.24531 10.782 8.74869 10.2778C8.88116 10.1453 11.1693 8.1362 11.2135 7.9534C11.2196 7.93043 11.2241 7.84565 11.172 7.80062C11.1199 7.75646 11.043 7.77147 10.9865 7.78295C10.9079 7.80062 9.65035 8.60425 7.21383 10.1912C6.85705 10.4279 6.53383 10.5427 6.24417 10.5374C5.92448 10.5303 5.30983 10.3625 4.85326 10.2195C4.29336 10.0428 3.84827 9.95101 3.88713 9.65163C3.90656 9.4962 4.1291 9.33724 4.55212 9.17475Z" fill="black"/>
    </mask>
  </defs>
  
  <!-- Применяем маску к цветному прямоугольнику -->
  <rect width="24" height="24" fill="#BF134F" mask="url(#cutoutMask)"/>
</svg>