<svg width="24" height="24" viewBox="-2 -2 24 24" fill="none" xmlns="http://www.w3.org/2000/svg">
<path fill-rule="evenodd" clip-rule="evenodd" d="M16.5858 2.82692C15.6852 1.92606 14.6148 1.21286 13.4366 0.728632C12.2559 0.243147 10.9909 -0.00444427 9.71429 6.03797e-05C4.3626 6.03797e-05 0 4.32292 0 9.62692C0 11.3269 0.392987 12.7549 1.23636 14.2121L0.335584 19.4286L5.5239 18.2656C6.94571 19.0339 8.08582 19.2635 9.7134 19.2635C15.0651 19.2635 19.4277 14.9406 19.4277 9.63663C19.4277 7.06235 18.4183 4.64349 16.5849 2.8278L16.5858 2.82692ZM13.8217 11.4894C13.3722 11.2722 12.6506 10.9242 12.4882 10.858C12.2621 10.7803 12.1049 10.7414 11.9389 10.9746C11.7719 11.2174 11.3118 11.7605 11.1741 11.9168C11.0372 12.082 10.8897 12.1014 10.6442 11.9751C10.5984 11.9537 10.5521 11.9331 10.5056 11.9133C10.17 11.7711 9.48114 11.4779 8.69429 10.7803C7.96836 10.1391 7.48795 9.35227 7.34135 9.10941C7.20447 8.86655 7.32192 8.74027 7.44909 8.61398C7.52239 8.54157 7.60982 8.43736 7.6946 8.33492C7.73434 8.28723 7.77408 8.23954 7.81205 8.19627C7.91979 8.07263 7.96925 7.97196 8.03725 7.83684L8.05668 7.79798C8.13527 7.63284 8.09642 7.49684 8.03725 7.38027C7.78155 6.78751 7.53308 6.19165 7.2919 5.59284C7.11881 5.18042 6.93865 5.17777 6.79735 5.17689C6.77792 5.17689 6.76026 5.17689 6.74348 5.17513H6.27278C6.10587 5.17513 5.85153 5.23341 5.62545 5.47538C5.60956 5.49481 5.59013 5.51601 5.56894 5.53897C5.31725 5.81274 4.78296 6.39383 4.78296 7.48712C4.78296 8.66609 5.64577 9.80619 5.77117 9.97133L5.77294 9.97398L5.79678 10.0093C6.03257 10.3502 7.59481 12.6136 9.91917 13.6071C10.4976 13.8597 10.9489 14.0045 11.3012 14.1123C11.8797 14.2968 12.4096 14.2677 12.8308 14.2094C13.3015 14.1414 14.2712 13.6266 14.4681 13.0631C14.6739 12.4997 14.6739 12.0237 14.605 11.9168C14.5502 11.8312 14.4443 11.7826 14.2782 11.7067C14.1258 11.6348 13.9736 11.5623 13.8217 11.4894Z" fill="#BF134F"/>
</svg>
