<svg width="222" height="35" viewBox="0 0 222 35" fill="none" xmlns="http://www.w3.org/2000/svg">
<path fill-rule="evenodd" clip-rule="evenodd" d="M5.60691 14.0546C5.07116 14.405 4.0195 14.9503 3.14317 15.5931C2.2666 16.2359 1.56569 16.976 1.05925 17.6379C0.552702 18.3003 0.241203 18.8845 0.0949733 19.6638C-0.0510252 20.4426 -0.0315201 21.4166 0.173109 22.2832C0.377507 23.1499 0.766911 23.9095 1.38045 24.5716C1.99399 25.2339 2.83144 25.7988 3.26978 26.1495C3.70789 26.5001 3.7469 26.6362 3.63991 26.9967C3.53269 27.3569 3.27947 27.9412 3.17248 28.4769C3.06515 29.0124 3.10416 29.4994 3.41589 30.1129C3.72739 30.7262 4.31173 31.4664 4.99348 32.0703C5.67511 32.674 6.45404 33.1414 7.52531 33.3849C8.59635 33.6282 9.95986 33.6478 11.1381 33.531C12.3166 33.414 13.3097 33.1607 13.9039 32.9467C14.4978 32.7323 14.6926 32.557 15.0823 32.6156C15.4716 32.674 16.056 32.966 17.4876 33.3362C18.919 33.706 21.1977 34.1541 23.4375 34.2611C25.6774 34.3683 27.8781 34.1346 29.2705 33.9789C30.6631 33.823 31.2476 33.7452 32.1823 33.823C33.1173 33.9009 34.4028 34.1346 35.6881 34.1833C36.9736 34.232 38.259 34.0956 39.3495 33.4335C40.4403 32.7711 41.3364 31.5834 41.7843 30.3076C42.2322 29.0318 42.2322 27.6684 42.1932 26.8213C42.1543 25.974 42.0765 25.6429 42.1835 25.3604C42.2907 25.0779 42.5827 24.8445 43.2255 24.3576C43.8682 23.8706 44.8617 23.1304 45.7087 22.3711C46.556 21.6113 47.2571 20.8324 47.6271 19.7222C47.9972 18.612 48.0361 17.1709 47.8609 16.0899C47.6856 15.0089 47.2961 14.2884 46.5658 13.6065C45.8354 12.9249 44.7642 12.282 43.5663 11.912C42.3685 11.542 41.0443 11.4447 40.3819 11.396C39.7198 11.3474 39.7198 11.3474 39.7782 10.432C39.8367 9.51638 39.9535 7.68557 39.788 6.2931C39.6224 4.90052 39.1746 3.94605 38.4051 3.13792C37.6357 2.32968 36.5451 1.66732 35.4153 1.39471C34.2857 1.12222 33.1173 1.2389 31.9486 1.44353C30.78 1.64793 29.6116 1.94015 28.7642 2.11547C27.9171 2.29067 27.3911 2.34918 26.9043 2.27116C26.4174 2.19314 25.9695 1.97916 25.1222 1.54094C24.275 1.10271 23.0285 0.440467 21.5094 0.157934C19.9902 -0.124484 18.1983 -0.0268442 16.65 0.440466C15.1017 0.907892 13.7966 1.74545 12.9398 2.82653C12.0828 3.90727 11.6739 5.23164 11.4498 6.22489C11.2258 7.21826 11.1869 7.88062 11.1674 8.21151C11.1478 8.54275 11.1478 8.54275 10.7097 8.56214C10.2714 8.58164 9.39502 8.62054 8.54788 8.87387C7.70063 9.12686 6.88258 9.5944 6.39564 10.2273C5.90883 10.8604 5.7529 11.6589 5.77241 12.2139C5.79191 12.7691 5.98673 13.0805 6.07433 13.3143C6.16193 13.5481 6.14231 13.7037 5.60691 14.0546ZM27.668 8.78235C27.4537 8.78235 27.0741 8.80208 26.8355 8.85298C26.5969 8.90422 26.4993 8.98698 26.4629 9.08438C26.4264 9.18168 26.4505 9.29375 26.5334 9.35942C26.6161 9.4252 26.7574 9.44482 26.945 9.44482C27.1323 9.44482 27.3661 9.4252 27.5438 9.39843C27.7216 9.37153 27.8432 9.33749 27.9066 9.24008C27.97 9.14278 27.9747 8.98213 27.9528 8.89211C27.9309 8.80208 27.8824 8.78235 27.668 8.78235ZM24.805 9.46906C24.5906 9.46906 24.211 9.48868 23.9725 9.53992C23.7338 9.59082 23.6363 9.67369 23.5999 9.77098C23.5633 9.86839 23.5876 9.98034 23.6704 10.0461C23.7531 10.1118 23.8945 10.1313 24.0818 10.1313C24.2693 10.1313 24.503 10.1118 24.6808 10.0851C24.8584 10.0585 24.9803 10.0243 25.0434 9.92691C25.1069 9.82961 25.1116 9.66861 25.0898 9.57882C25.0678 9.48868 25.0193 9.46906 24.805 9.46906ZM18.101 6.17238C18.4905 6.52774 19.2112 7.02448 19.9853 7.47263C20.7595 7.92044 21.5872 8.31965 22.2836 8.55844C22.9798 8.79689 23.5446 8.87468 24.1726 8.80658C24.8009 8.73837 25.4921 8.5244 25.9644 8.38798C26.4369 8.25144 26.6901 8.19304 26.9578 8.08594C27.2256 7.97884 27.5082 7.82314 27.7029 7.58954C27.8977 7.35572 28.0047 7.0441 27.9659 6.83947C27.927 6.63507 27.7419 6.53755 27.2939 6.3088C26.8459 6.08005 26.1351 5.71949 25.4583 5.43731C24.7814 5.15478 24.1387 4.95038 23.4765 4.80911C22.8142 4.66784 22.1327 4.58994 21.3195 4.56559C20.5063 4.54112 19.5618 4.57055 18.9288 4.64845C18.2958 4.72624 17.9745 4.85274 17.8042 4.98442C17.6336 5.11577 17.614 5.25207 17.6336 5.4275C17.6531 5.60281 17.7115 5.81702 18.101 6.17238ZM12.0153 8.47581C12.0836 7.32652 12.2393 6.43056 12.5413 5.58354C12.843 4.73628 13.291 3.93762 13.8558 3.28519C14.4206 2.63275 15.1022 2.12643 15.8228 1.73691C16.5435 1.34739 17.3032 1.07455 18.1407 0.957751C18.9782 0.840837 19.8934 0.879847 20.7018 0.987067C21.5101 1.09417 22.2111 1.26937 22.9026 1.53228C23.594 1.79519 24.2757 2.14594 24.8113 2.41854C25.3469 2.69104 25.7363 2.88609 26.2427 2.98338C26.7491 3.08067 27.3725 3.08067 28.1126 2.95418C28.8528 2.82746 29.7096 2.57435 30.7125 2.38934C31.7156 2.20422 32.8649 2.08731 33.7705 2.06815C34.6761 2.04841 35.3383 2.12643 35.9323 2.31144C36.5263 2.49633 37.0522 2.78844 37.4709 3.10987C37.8897 3.43118 38.2013 3.78193 38.4836 4.42467C38.766 5.06741 39.0193 6.00191 39.1459 6.45987C39.2725 6.9176 39.2725 6.8981 38.9025 6.57679C38.5325 6.25525 37.7922 5.63201 37.0813 5.15478C36.3705 4.67765 35.6888 4.34653 34.7831 4.11305C33.8775 3.87922 32.7478 3.74315 31.5793 3.74315C30.4108 3.74315 29.2031 3.87922 28.4729 4.03515C27.7426 4.19072 27.4891 4.36604 27.2068 4.47337C26.9244 4.58024 26.6128 4.61937 26.2621 4.62906C25.9115 4.63888 25.5221 4.61937 25.0644 4.50246C24.6067 4.38543 24.081 4.17133 23.3214 4.03515C22.5618 3.89861 21.5684 3.84044 20.6044 3.86953C19.6402 3.89861 18.7056 4.01564 18.0822 4.21034C17.459 4.40505 17.1472 4.67765 16.8844 4.94057C16.6214 5.20348 16.4072 5.45693 16.2708 5.81725C16.1345 6.17757 16.0762 6.645 16.047 7.16101C16.0177 7.67726 16.0177 8.24198 16.0177 8.52463C16.0177 8.80681 16.0177 8.80681 15.7937 8.64131C15.5697 8.47581 15.1218 8.14457 14.781 7.93994C14.44 7.73554 14.2063 7.65752 13.9823 7.92067C13.7582 8.18358 13.5443 8.78731 13.213 9.59555C12.8818 10.4038 12.434 11.4164 12.21 11.9231C11.9859 12.4294 11.9859 12.4294 11.9762 11.7282C11.9666 11.027 11.9471 9.62487 12.0153 8.47581ZM30.9366 28.2055C31.0438 27.7865 31.5209 26.8712 31.8957 26.1116C32.2707 25.3521 32.5436 24.7481 32.9525 24.2371C33.3615 23.7259 33.9067 23.3068 34.5005 23.0634C35.0948 22.8201 35.7375 22.7518 36.4046 22.8347C37.0717 22.9174 37.763 23.1511 38.5908 23.482C39.4188 23.8133 40.3827 24.2418 40.8647 24.4561C41.3468 24.6702 41.3468 24.6702 40.9864 24.6314C40.6262 24.5924 39.9056 24.5145 39.068 24.4755C38.2306 24.4365 37.2762 24.4365 36.4727 24.4707C35.6696 24.5047 35.0168 24.5729 34.4179 24.904C33.819 25.2352 33.2738 25.8291 32.7722 26.4672C32.2707 27.105 31.813 27.7865 31.4526 28.1663C31.0924 28.5462 30.8296 28.6241 30.9366 28.2055ZM4.20093 29.1352C4.44919 29.364 4.8581 29.9969 5.50084 30.5375C6.14358 31.078 7.02003 31.5259 8.00843 31.8034C8.99695 32.0811 10.0974 32.1883 11.0908 32.1978C12.084 32.2075 12.9702 32.1201 13.4133 32.0761C13.8565 32.0323 13.8565 32.0323 13.4231 32.237C12.9897 32.4413 12.1231 32.8502 11.1151 33.0209C10.1071 33.1911 8.95806 33.1231 8.00867 32.9235C7.05904 32.7239 6.30908 32.3926 5.66646 31.9057C5.02372 31.4187 4.48832 30.7761 4.19124 30.3086C3.89405 29.8412 3.83576 29.549 3.85042 29.3154C3.86485 29.0817 3.95256 28.9061 4.20093 29.1352ZM8.10192 13.9777C7.63449 13.6468 7.16707 13.3158 6.89435 12.9458C6.62162 12.5757 6.54384 12.1665 6.57304 11.7431C6.60224 11.3193 6.73865 10.8809 7.07462 10.4965C7.41059 10.1118 7.94611 9.78045 8.55007 9.5712C9.15357 9.36184 9.82563 9.27424 10.1617 9.2305C10.4976 9.18653 10.4976 9.18653 10.1858 9.396C9.87433 9.60536 9.2511 10.0243 8.82268 10.4525C8.39415 10.8809 8.16044 11.3193 8.04848 11.7818C7.93642 12.2444 7.94611 12.7316 7.97543 13.1016C8.00463 13.4715 8.05322 13.7248 8.10192 13.9777ZM16.8669 6.4698C16.8279 7.52157 16.789 8.57322 16.7696 9.09904C16.75 9.6251 16.75 9.6251 16.8961 9.8198C17.0422 10.0145 17.3342 10.404 17.6556 10.9008C17.9768 11.3975 18.3276 12.001 18.5711 12.6829C18.8145 13.3645 18.9508 14.1242 19.0579 14.6306C19.165 15.1368 19.2429 15.39 19.2819 15.5169C19.3208 15.6432 19.3208 15.6432 19.4571 15.166C19.5937 14.6889 19.8662 13.7345 20.2558 12.9946C20.6453 12.2543 21.1519 11.7286 21.6192 11.3391C22.0866 10.9494 22.5151 10.6964 22.7295 10.4722C22.9436 10.2483 22.9436 10.0536 22.6416 9.77098C22.3398 9.48845 21.7361 9.11866 20.7232 8.55371C19.7104 7.98911 18.2887 7.22945 16.8669 6.4698ZM31.3577 29.3741C31.8057 30.0168 32.2536 30.6595 32.4776 30.9808C32.7016 31.3022 32.7016 31.3022 33.3443 30.9126C33.987 30.523 35.2725 29.7442 36.5286 28.8192C37.7849 27.894 39.0121 26.8226 39.7326 26.1994C40.4532 25.5761 40.6673 25.4009 40.7744 25.3131C40.8818 25.2257 40.8818 25.2257 40.2875 25.177C39.6936 25.1281 38.5055 25.0308 37.4927 25.0017C36.48 24.9725 35.6423 25.0115 34.8828 25.4399C34.1232 25.8682 33.4416 26.6865 32.867 27.4071C32.2925 28.1277 31.8251 28.7509 31.3577 29.3741ZM7.1201 28.0008C5.96111 27.5044 5.39639 27.1537 5.07496 26.9785C4.75365 26.8031 4.67563 26.8031 4.58803 26.9785C4.50043 27.1537 4.40291 27.5044 4.43222 27.9327C4.46142 28.361 4.61712 28.8676 4.96786 29.296C5.31837 29.7245 5.86358 30.0754 6.59415 30.4551C7.32438 30.8347 8.23973 31.244 9.09679 31.4388C9.95385 31.6335 10.7523 31.6139 11.6385 31.526C12.5246 31.4387 13.4984 31.2827 14.2191 31.1366C14.9397 30.9906 15.4072 30.8543 15.6409 30.7861C15.8746 30.7179 15.8746 30.7179 15.1931 30.5621C14.5113 30.4064 13.1478 30.0945 11.5898 29.6175C10.0316 29.1404 8.27885 28.4977 7.1201 28.0008ZM11.259 9.5667C11.2396 11.2222 11.2199 12.8776 11.1714 13.978C11.1226 15.0785 11.0446 15.6237 11.0058 15.8967C10.9668 16.1692 10.9668 16.1692 10.6454 15.9063C10.3241 15.6432 9.68136 15.1175 9.25294 14.6696C8.82441 14.2216 8.6102 13.8516 8.55169 13.4036C8.49318 12.9556 8.5907 12.4297 8.76601 11.9917C8.94121 11.5533 9.19466 11.2026 9.47707 10.8813C9.75949 10.56 10.0709 10.268 10.3729 10.0536C10.6747 9.83931 10.9668 9.703 11.259 9.5667ZM27.8436 5.35006C27.9119 5.09684 28.2624 4.80461 28.9539 4.65861C29.6453 4.51273 30.6776 4.51273 31.6901 4.51273C32.7031 4.51273 33.6964 4.51273 34.5436 4.68781C35.3908 4.86301 36.0918 5.21364 36.6567 5.61308C37.2216 6.01218 37.6501 6.4601 37.913 6.78142C38.176 7.10296 38.2733 7.29766 38.3317 7.46328C38.3901 7.6289 38.4098 7.76497 38.3221 7.9793C38.2345 8.19351 38.0396 8.4855 37.6112 9.05057C37.1829 9.6154 36.5205 10.4528 36.1115 10.9107C35.7026 11.3684 35.5466 11.4461 35.3957 11.4022C35.2448 11.3583 35.0986 11.1928 34.9038 10.7059C34.7091 10.2191 34.4656 9.41077 34.0322 8.6757C33.5989 7.94052 32.9758 7.27804 32.6057 6.94704C32.2356 6.61603 32.1189 6.61603 31.7584 6.88864C31.3981 7.16124 30.7945 7.70657 30.2198 8.1156C29.6453 8.52463 29.0999 8.79747 28.8174 8.90434C28.5351 9.01167 28.5156 8.95316 28.5642 8.59295C28.6129 8.23263 28.7299 7.57027 28.6811 7.09303C28.6324 6.61603 28.4183 6.32403 28.204 6.07081C27.9897 5.81737 27.7756 5.60316 27.8436 5.35006ZM40.1983 12.6634C40.4661 12.9018 40.9238 13.3302 41.3862 13.8611C41.8488 14.3918 42.3162 15.0245 42.6667 15.6041C43.0174 16.1836 43.2511 16.7093 43.4214 17.2304C43.5919 17.7514 43.6991 18.2676 43.7332 18.8958C43.7673 19.5237 43.7283 20.2639 43.3875 21.1455C43.0468 22.0267 42.4041 23.049 42.0826 23.5603C41.7613 24.0716 41.7613 24.0716 41.5276 23.9402C41.2938 23.8086 40.8264 23.5456 40.2275 23.2536C39.6286 22.9613 38.898 22.64 38.528 22.4793C38.158 22.3188 38.1483 22.3188 38.2068 21.9535C38.2653 21.5881 38.3917 20.8579 38.6595 19.2753C38.9273 17.6928 39.3364 15.2582 39.5457 13.9585C39.7551 12.6584 39.7649 12.4929 39.8088 12.4343C39.8526 12.3759 39.9305 12.4246 40.1983 12.6634ZM24.1159 28.4C24.3301 28.278 24.9244 28.1614 25.4453 28.1224C25.9664 28.0833 26.4142 28.122 26.8135 28.1417C27.2128 28.1614 27.5633 28.1614 27.909 28.21C28.2548 28.2587 28.5956 28.3561 29.1068 28.6872C29.6181 29.0183 30.2998 29.583 30.8208 30.1381C31.3418 30.6933 31.7021 31.2384 31.9211 31.6427C32.1403 32.0468 32.2183 32.3098 32.2571 32.4413C32.2961 32.5726 32.2961 32.5726 32.0527 32.4803C31.8093 32.3875 31.3224 32.2025 30.6893 31.8958C30.0564 31.5892 29.2772 31.1606 28.3911 30.6735C27.5049 30.1866 26.5116 29.6417 25.8006 29.3154C25.0899 28.9891 24.6614 28.8819 24.3643 28.765C24.0673 28.6481 23.9018 28.5216 24.1159 28.4ZM6.51002 14.5183C6.73404 14.6741 7.05535 15.0345 7.43529 15.6675C7.81477 16.3004 8.25323 17.2061 8.63779 18.1995C9.02246 19.1927 9.35358 20.2735 9.85021 21.5446C10.3468 22.8152 11.0092 24.2761 11.462 25.3522C11.9147 26.4282 12.1583 27.1196 12.5039 27.7185C12.8497 28.3175 13.2975 28.8238 13.6287 29.1647C13.9599 29.5054 14.174 29.6809 14.2813 29.7686C14.3883 29.8561 14.3883 29.8561 13.8041 29.6467C13.2197 29.4375 12.0513 29.0184 10.9653 28.6391C9.87941 28.2591 8.87646 27.9181 7.8539 27.475C6.83133 27.0319 5.78938 26.4865 4.93728 26.0628C4.08529 25.6392 3.42281 25.3375 2.83374 24.8847C2.24455 24.4318 1.72854 23.8282 1.36325 23.2195C0.997967 22.6108 0.783874 21.9972 0.725359 21.3499C0.666844 20.7021 0.76437 20.0204 0.988388 19.407C1.21229 18.7935 1.56292 18.2481 2.00138 17.7464C2.43937 17.245 2.96508 16.7873 3.51549 16.3346C4.06555 15.8816 4.64032 15.4339 5.064 15.1221C5.48745 14.8106 5.76029 14.635 5.95996 14.5231C6.15951 14.4112 6.286 14.3625 6.51002 14.5183ZM8.93544 16.9138C9.34447 18.1798 10.2012 20.5558 10.9853 22.5376C11.7692 24.5194 12.4801 26.1068 13.1229 27.2413C13.7656 28.3758 14.3402 29.0576 15.0024 29.4763C15.6646 29.8951 16.4144 30.0508 17.0669 30.0945C17.7194 30.1385 18.2743 30.0703 18.8246 29.9387C19.3747 29.8074 19.9201 29.6126 20.4849 29.3302C21.0497 29.0476 21.6341 28.6778 22.1892 28.3758C22.7444 28.074 23.2701 27.8403 23.7668 27.7138C24.2634 27.587 24.7307 27.5673 25.0862 27.5576C25.4416 27.5481 25.6853 27.5481 25.914 27.5041C26.1431 27.4603 26.3572 27.3726 26.5374 27.1196C26.7176 26.8664 26.8635 26.4476 27.0143 25.8389C27.1654 25.2303 27.3212 24.4318 27.4185 23.6187C27.5159 22.8056 27.555 21.9776 27.4867 21.267C27.4185 20.5559 27.2433 19.9619 26.9073 19.4847C26.5714 19.0074 26.0746 18.6473 25.4951 18.4478C24.9159 18.2481 24.2535 18.209 23.2604 18.3017C22.267 18.3942 20.9426 18.6179 19.5599 18.7107C18.1769 18.803 16.7357 18.764 15.3432 18.5206C13.9504 18.2772 12.6068 17.8293 11.5745 17.3329C10.5422 16.8359 9.82147 16.2905 9.37829 15.9498C8.93521 15.6088 8.7697 15.4725 8.66768 15.4822C8.56531 15.4922 8.5263 15.6477 8.93544 16.9138ZM11.8084 16.3002C11.896 16.4657 12.0322 16.6895 12.4461 16.9378C12.8601 17.1862 13.5514 17.4589 14.2332 17.6539C14.9147 17.8486 15.5867 17.9655 16.3415 18.0239C17.0962 18.0823 17.9337 18.0823 18.3525 18.0823C18.7712 18.0823 18.7712 18.0823 18.7469 17.6197C18.7224 17.157 18.6739 16.2318 18.5472 15.331C18.4206 14.4302 18.2162 13.5539 17.8754 12.775C17.5343 11.9958 17.0572 11.3139 16.5459 10.7152C16.0347 10.1162 15.4894 9.60028 15.168 9.28867C14.8467 8.97705 14.7492 8.86971 14.6178 8.94289C14.4864 9.01571 14.3208 9.26905 14.0336 9.79499C13.7462 10.3209 13.3373 11.1192 12.9722 11.9082C12.607 12.697 12.2856 13.4759 12.0712 14.1431C11.857 14.8101 11.7499 15.3652 11.7159 15.6963C11.6817 16.0274 11.7207 16.1344 11.8084 16.3002ZM16.3225 31.8275C16.9019 31.5402 18.012 31.063 19.0296 30.6491C20.0473 30.2352 20.9725 29.8845 21.6494 29.6557C22.326 29.4269 22.7545 29.3197 23.1929 29.2953C23.631 29.2711 24.0788 29.3295 24.6047 29.5096C25.1308 29.6899 25.7344 29.9917 26.6644 30.4836C27.5945 30.9754 28.8507 31.6569 29.6833 32.1049C30.5159 32.5531 30.9249 32.7672 31.1439 32.928C31.363 33.0885 31.3924 33.1957 30.9199 33.2737C30.4477 33.3514 29.4739 33.4001 28.5584 33.4585C27.6431 33.517 26.7863 33.5852 25.8076 33.6339C24.8287 33.6824 23.7283 33.7117 22.6816 33.6389C21.6347 33.5657 20.6413 33.3905 19.6285 33.1957C18.6158 33.0008 17.5835 32.7868 16.9262 32.6407C16.2688 32.4945 15.9864 32.4166 15.8356 32.3729C15.6846 32.329 15.6651 32.3191 15.6798 32.2655C15.6944 32.2119 15.743 32.1146 16.3225 31.8275ZM33.4326 31.8708C33.9537 31.5201 34.9079 30.9357 35.9597 30.2006C37.0114 29.4653 38.1606 28.5789 39.0467 27.8343C39.9329 27.0892 40.5561 26.4854 40.8677 26.1835C41.1793 25.8817 41.1793 25.8817 41.1793 25.8817C41.1793 25.8817 41.1793 25.8817 41.2279 26.2128C41.2766 26.5437 41.3742 27.2061 41.3498 27.9367C41.3254 28.6669 41.1795 29.4653 40.9602 30.1227C40.7412 30.7799 40.4492 31.2962 40.0158 31.7586C39.5824 32.2212 39.0077 32.6303 38.3991 32.9128C37.7905 33.1951 37.1478 33.3507 36.3492 33.3654C35.5507 33.38 34.5964 33.2534 33.9537 33.1026C33.311 32.9518 32.98 32.7762 32.8289 32.6642C32.6779 32.5523 32.7072 32.5037 32.7655 32.4209C32.824 32.3382 32.9117 32.2212 33.4326 31.8708ZM41.3888 12.0872C41.7249 12.1065 42.2994 12.165 42.947 12.367C43.5946 12.5692 44.3152 12.9147 44.9286 13.3286C45.5422 13.7425 46.0486 14.2246 46.4186 14.6798C46.7886 15.135 47.0224 15.5636 47.1686 16.1284C47.3146 16.6932 47.3729 17.3945 47.3194 18.0665C47.2659 18.7384 47.1004 19.381 46.8375 19.9459C46.5747 20.5107 46.2141 20.9975 45.5033 21.6645C44.7924 22.3317 43.7309 23.179 43.2003 23.6024C42.6695 24.0261 42.6695 24.0261 42.6695 24.0261C42.6695 24.0261 42.6695 24.0261 42.9129 23.6075C43.1564 23.1886 43.6434 22.3511 43.95 21.5284C44.2569 20.7055 44.3834 19.897 44.3542 19.0304C44.3251 18.1636 44.1399 17.2386 43.8818 16.4889C43.6239 15.7389 43.2929 15.1645 42.8691 14.5363C42.4455 13.908 41.9295 13.2266 41.5787 12.8125C41.2282 12.3986 41.0431 12.2526 40.9993 12.1699C40.9555 12.0872 41.053 12.0675 41.3888 12.0872ZM30.3704 27.1814C30.7407 26.0321 31.1106 24.883 31.3734 23.5292C31.6364 22.1758 31.7923 20.6176 31.9091 19.4101C32.0259 18.2025 32.104 17.3457 32.4156 16.557C32.7272 15.768 33.2724 15.0475 33.8663 14.3268C34.4606 13.6062 35.1034 12.8855 35.8144 12.1261C36.5252 11.3663 37.3042 10.5678 37.8689 9.94456C38.4338 9.32133 38.7845 8.87341 38.9596 8.64951C39.1348 8.42549 39.1349 8.42549 39.1349 8.42549C39.1349 8.42549 39.1348 8.42549 39.0668 9.35053C38.9985 10.2757 38.8624 12.126 38.6771 13.908C38.4923 15.6902 38.2585 17.404 38.0539 18.8162C37.8496 20.2282 37.6741 21.3382 37.5865 21.8932C37.4989 22.4483 37.4989 22.4483 37.4989 22.4483C37.4989 22.4483 37.4989 22.4483 37.1385 22.3218C36.7781 22.1952 36.0576 21.9419 35.2297 22.0589C34.4021 22.1758 33.4673 22.6626 32.8537 23.1496C32.2401 23.6365 31.9482 24.1233 31.6656 24.8635C31.3833 25.6037 31.1106 26.5967 30.838 27.5903C30.6822 27.4538 30.5264 27.3176 30.3704 27.1814ZM20.0871 17.8326C20.126 16.8587 20.165 15.885 20.35 14.9892C20.535 14.0931 20.8661 13.2751 21.353 12.6419C21.84 12.0091 22.4826 11.5612 23.1253 11.2594C23.7681 10.9573 24.4108 10.8016 25.1799 10.6555C25.9494 10.5093 26.8455 10.3732 27.7413 10.1298C28.6373 9.88628 29.5331 9.53554 30.2146 9.18491C30.8964 8.83463 31.3639 8.48389 31.6462 8.18219C31.9286 7.88016 32.0259 7.62694 32.0746 7.50045C32.1233 7.37384 32.1234 7.37384 32.1234 7.37384C32.1234 7.37384 32.1233 7.37384 32.3474 7.74408C32.5714 8.11399 33.0193 8.85402 33.4574 9.56474C33.8956 10.2758 34.3244 10.9573 34.5384 11.4344C34.7527 11.9118 34.7527 12.1845 34.4899 12.5253C34.2269 12.866 33.7009 13.2751 33.1556 13.8693C32.6104 14.4631 32.0454 15.2423 31.7241 16.0994C31.4027 16.9563 31.325 17.8909 31.2568 18.8453C31.1886 19.7998 31.1302 20.7736 31.0522 21.6014C30.9744 22.4291 30.877 23.1107 30.5945 24.0748C30.3122 25.039 29.8447 26.2853 29.611 26.9086C29.3772 27.5318 29.3772 27.5318 29.3772 27.5318C29.3772 27.5318 29.3772 27.5318 29.0267 27.5709C28.6762 27.6099 27.975 27.6876 27.6244 27.7266C27.2739 27.7655 27.2739 27.7655 27.2739 27.7655C27.2739 27.7655 27.2739 27.7655 27.4297 27.1131C27.5855 26.4606 27.8972 25.1558 28.0529 24.0555C28.2087 22.955 28.2087 22.0589 28.1112 21.2313C28.0139 20.4034 27.8192 19.6439 27.4685 19.0791C27.118 18.5144 26.6115 18.1443 26.1149 17.9205C25.6183 17.6963 25.1315 17.6184 24.1283 17.6282C23.1253 17.6379 21.6063 17.7352 20.0871 17.8326Z" fill="#BF134F"/>
<path d="M70.0433 24.2955L64.9563 10.3886H66.7036L70.912 21.7519L74.9474 10.3886H74.9831L70.0699 24.2955H70.0433ZM64.974 10.3886V24.0758H66.3923V24.1129H63.6109V24.0758H64.9382V10.4246H63.5293V10.3886H64.974ZM77.9852 10.3886V10.4246H76.704V24.0758H77.9852V24.1129H73.4924V24.0758H74.9653V10.3886H77.9852ZM81.9768 19.6291H87.7959V19.6659H81.9768V19.6291ZM85.3164 10.1143L90.1564 24.0758H91.4558V24.1129H86.1493V24.0758H88.1524L84.4566 12.6207L80.4491 24.0758H82.6721V24.1129H78.6464V24.0758H80.4121L85.2793 10.1143H85.3164ZM92.1204 24.1129V24.0758H93.7583V10.4246H92.1204V10.3886H97.1436V10.4246H95.5059V24.0758H98.3329C99.0526 24.0758 99.6377 23.9749 100.089 23.7745C100.541 23.5669 100.889 23.28 101.132 22.9146C101.376 22.5422 101.545 22.1084 101.635 21.6152C101.727 21.1141 101.773 20.5749 101.773 19.9954H101.809V24.1129H92.1204ZM102.521 24.1129V24.0758H104.524V10.4246H102.521V10.3886H108.468V10.4246H106.272V24.0758H108.468V24.1129H102.521ZM109.132 24.1129V24.0758H114.613C115.137 24.0758 115.623 23.9111 116.068 23.5817C116.513 23.2464 116.869 22.7922 117.138 22.2183C117.413 21.6456 117.55 20.9954 117.55 20.2703C117.55 19.5439 117.413 18.9461 117.138 18.4766C116.869 18.0068 116.513 17.6592 116.068 17.4339C115.623 17.2021 115.137 17.0854 114.613 17.0854H112.426V17.0495H114.804C115.665 17.0495 116.454 17.1528 117.174 17.3602C117.894 17.5675 118.471 17.9061 118.904 18.3757C119.336 18.8454 119.553 19.4765 119.553 20.2703C119.553 21.6423 119.129 22.6277 118.282 23.2249C117.44 23.817 116.281 24.1129 114.804 24.1129H109.132ZM110.77 10.407H112.518V24.0938H110.77V10.407ZM112.426 17.0854V17.0495H114.439C114.902 17.0495 115.341 16.9431 115.756 16.7289C116.178 16.516 116.518 16.1831 116.781 15.7313C117.05 15.2739 117.184 14.6822 117.184 13.9568C117.184 13.2303 117.05 12.6059 116.781 12.0815C116.518 11.5501 116.178 11.142 115.756 10.8552C115.341 10.5683 114.902 10.4246 114.439 10.4246H109.132V10.3886H114.439C115.823 10.3886 116.931 10.6565 117.76 11.1935C118.596 11.7239 119.014 12.5847 119.014 13.7741C119.014 14.9635 118.62 15.8143 117.833 16.3266C117.046 16.8333 115.915 17.0854 114.439 17.0854H112.426ZM132.736 10.3886V10.4246H130.924V19.9035C130.924 21.4099 130.61 22.5356 129.981 23.28C129.353 24.0176 128.316 24.3874 126.87 24.3874C125.291 24.3874 124.132 24.0366 123.394 23.335C122.662 22.6277 122.296 21.484 122.296 19.9035V10.4246H120.658V10.3886H125.873V10.4246H124.043V19.7208C124.043 20.3252 124.086 20.9013 124.171 21.4504C124.263 21.9988 124.421 22.4875 124.648 22.9146C124.88 23.3403 125.203 23.6792 125.617 23.9301C126.038 24.1732 126.578 24.2955 127.237 24.2955C128.054 24.2955 128.731 24.1377 129.268 23.8202C129.811 23.4964 130.217 23.0121 130.485 22.3651C130.753 21.7129 130.887 20.8923 130.887 19.9035V10.4246H129.158V10.3886H132.736Z" fill="#2B2A29"/>
<path d="M112.426 17.0854H114.613C115.137 17.0854 115.623 17.2021 116.068 17.4339C116.513 17.6592 116.869 18.0068 117.138 18.4766C117.413 18.9461 117.55 19.5439 117.55 20.2703C117.55 20.9954 117.413 21.6456 117.138 22.2183C116.869 22.7922 116.513 23.2464 116.068 23.5817C115.623 23.9111 115.137 24.0758 114.613 24.0758H109.132V24.1129H114.804C116.281 24.1129 117.44 23.817 118.282 23.2249C119.129 22.6277 119.553 21.6423 119.553 20.2703C119.553 19.4765 119.336 18.8454 118.904 18.3757C118.471 17.9061 117.894 17.5675 117.174 17.3602C116.454 17.1528 115.665 17.0495 114.804 17.0495H112.426M112.426 17.0854V17.0495M112.426 17.0854H114.439C115.915 17.0854 117.046 16.8333 117.833 16.3266C118.62 15.8143 119.014 14.9635 119.014 13.7741C119.014 12.5847 118.596 11.7239 117.76 11.1935C116.931 10.6565 115.823 10.3886 114.439 10.3886H109.132V10.4246H114.439C114.902 10.4246 115.341 10.5683 115.756 10.8552C116.178 11.142 116.518 11.5501 116.781 12.0815C117.05 12.6059 117.184 13.2303 117.184 13.9568C117.184 14.6822 117.05 15.2739 116.781 15.7313C116.518 16.1831 116.178 16.516 115.756 16.7289C115.341 16.9431 114.902 17.0495 114.439 17.0495H112.426M70.0433 24.2955L64.9563 10.3886H66.7036L70.912 21.7519L74.9474 10.3886H74.9831L70.0699 24.2955H70.0433ZM64.974 10.3886V24.0758H66.3923V24.1129H63.6109V24.0758H64.9382V10.4246H63.5293V10.3886H64.974ZM77.9852 10.3886V10.4246H76.704V24.0758H77.9852V24.1129H73.4924V24.0758H74.9653V10.3886H77.9852ZM81.9768 19.6291H87.7959V19.6659H81.9768V19.6291ZM85.3164 10.1143L90.1564 24.0758H91.4558V24.1129H86.1493V24.0758H88.1524L84.4566 12.6207L80.4491 24.0758H82.6721V24.1129H78.6464V24.0758H80.4121L85.2793 10.1143H85.3164ZM92.1204 24.1129V24.0758H93.7583V10.4246H92.1204V10.3886H97.1436V10.4246H95.5059V24.0758H98.3329C99.0526 24.0758 99.6377 23.9749 100.089 23.7745C100.541 23.5669 100.889 23.28 101.132 22.9146C101.376 22.5423 101.545 22.1084 101.635 21.6152C101.727 21.1141 101.773 20.5749 101.773 19.9954H101.809V24.1129H92.1204ZM102.521 24.1129V24.0758H104.524V10.4246H102.521V10.3886H108.468V10.4246H106.272V24.0758H108.468V24.1129H102.521ZM110.77 10.407H112.518V24.0938H110.77V10.407ZM132.736 10.3886V10.4246H130.924V19.9035C130.924 21.4099 130.61 22.5356 129.981 23.28C129.353 24.0176 128.316 24.3874 126.87 24.3874C125.291 24.3874 124.132 24.0366 123.394 23.335C122.662 22.6277 122.296 21.484 122.296 19.9035V10.4246H120.658V10.3886H125.873V10.4246H124.043V19.7208C124.043 20.3252 124.086 20.9013 124.171 21.4504C124.263 21.9988 124.421 22.4875 124.648 22.9146C124.88 23.3403 125.203 23.6792 125.617 23.9301C126.038 24.1732 126.578 24.2955 127.237 24.2955C128.054 24.2955 128.731 24.1377 129.268 23.8202C129.811 23.4964 130.217 23.0121 130.485 22.3651C130.753 21.7129 130.887 20.8923 130.887 19.9035V10.4246H129.158V10.3886H132.736Z" stroke="#2B2A29" stroke-width="0.0879453" stroke-miterlimit="22.9256"/>
<path d="M143.895 19.0722C143.895 18.6652 143.803 18.3235 143.622 18.0449C143.44 17.7594 143.17 17.5444 142.812 17.3987C142.454 17.2539 142.012 17.1803 141.485 17.1803H140.303V17.1446H141.485C142.012 17.1446 142.454 17.08 142.812 16.9527C143.17 16.8201 143.44 16.6198 143.622 16.3536C143.803 16.0858 143.895 15.7494 143.895 15.3439H143.931V19.0722H143.895ZM146.668 10.3051V14.0336H146.632C146.632 13.3849 146.525 12.7823 146.314 12.2241C146.101 11.66 145.768 11.2057 145.313 10.86C144.864 10.5149 144.286 10.3411 143.576 10.3411H140.666V23.91H142.486V23.9471H137.301V23.91H138.929V10.3411H137.301V10.3051H146.668ZM147.533 23.9471V23.91H149.16V10.3411H147.533V10.3051H152.525V10.3411H150.897V23.91H153.707C154.423 23.91 155.005 23.8098 155.454 23.6107C155.902 23.4042 156.247 23.119 156.49 22.756C156.733 22.3856 156.899 21.9547 156.99 21.4642C157.082 20.9664 157.127 20.4302 157.127 19.8542H157.163V23.9471H147.533ZM164.118 24.1285C163.197 24.1285 162.374 23.9492 161.654 23.5916C160.932 23.2281 160.32 22.7247 159.816 22.0828C159.319 21.4396 158.941 20.6965 158.679 19.8542C158.419 19.0052 158.288 18.0961 158.288 17.1255C158.288 16.1562 158.425 15.2492 158.698 14.4067C158.976 13.5577 159.371 12.8123 159.88 12.1694C160.396 11.5265 161.011 11.0263 161.726 10.6684C162.441 10.3051 163.239 10.1237 164.118 10.1237C164.997 10.1237 165.791 10.3051 166.501 10.6684C167.216 11.0263 167.829 11.5265 168.338 12.1694C168.853 12.8123 169.247 13.5577 169.52 14.4067C169.793 15.2492 169.929 16.1562 169.929 17.1255C169.929 18.0961 169.799 19.0052 169.538 19.8542C169.284 20.6965 168.907 21.4396 168.41 22.0828C167.913 22.7247 167.304 23.2281 166.583 23.5916C165.861 23.9492 165.04 24.1285 164.118 24.1285ZM164.118 24.092C164.912 24.092 165.552 23.8891 166.037 23.4833C166.529 23.0702 166.904 22.5274 167.164 21.8556C167.425 21.1758 167.601 20.4236 167.692 19.5994C167.789 18.7746 167.838 17.9499 167.838 17.1255C167.838 16.2954 167.783 15.4709 167.674 14.6518C167.565 13.8275 167.371 13.0788 167.092 12.4056C166.819 11.7271 166.44 11.1843 165.954 10.7778C165.475 10.3657 164.864 10.1592 164.118 10.1592C163.372 10.1592 162.757 10.3657 162.272 10.7778C161.786 11.1843 161.405 11.7271 161.126 12.4056C160.853 13.0788 160.659 13.8275 160.544 14.6518C160.435 15.4709 160.38 16.2954 160.38 17.1255C160.38 17.9499 160.429 18.7746 160.526 19.5994C160.623 20.4236 160.801 21.1758 161.062 21.8556C161.323 22.5274 161.699 23.0702 162.19 23.4833C162.686 23.8891 163.33 24.092 164.118 24.092ZM176.761 24.1285L172.478 10.3411H170.86V10.3051H183.583V10.3411H179.045L182.473 21.4185L186.502 10.3411H184.501V10.3051H188.13V10.3411H186.557L181.546 24.1285H181.509L177.235 10.3411H174.297L177.762 21.4185L179.572 16.6442L179.599 16.7254L176.799 24.1285H176.761ZM180.509 15.3075L180.472 15.2526L182.128 10.3231H182.191L180.509 15.3075ZM188.635 23.9471V23.91H190.263V10.3411H188.635V10.3051H198.175V14.0336H198.147C198.147 13.3849 198.041 12.7823 197.829 12.2241C197.617 11.66 197.284 11.2057 196.829 10.86C196.38 10.5149 195.8 10.3411 195.092 10.3411H192V23.91H194.91C195.74 23.91 196.404 23.7342 196.902 23.383C197.405 23.0254 197.768 22.5395 197.992 21.9279C198.217 21.3151 198.329 20.6244 198.329 19.8542H198.365V23.9471H188.635ZM195.055 18.8906C195.055 18.4838 194.964 18.1329 194.782 17.8355C194.601 17.5377 194.358 17.3102 194.054 17.1533C193.758 16.9895 193.436 16.907 193.091 16.907H191.272V16.8717H193.091C193.436 16.8717 193.758 16.7982 194.054 16.6533C194.358 16.5071 194.601 16.2954 194.782 16.0169C194.964 15.732 195.055 15.3863 195.055 14.9796H195.092V18.8906H195.055ZM202.495 16.9616V16.926H205.224C205.805 16.926 206.3 16.7924 206.706 16.526C207.112 16.2586 207.421 15.883 207.634 15.3986C207.846 14.9071 207.951 14.3308 207.951 13.6702C207.951 13.0096 207.846 12.4304 207.634 11.9332C207.421 11.4297 207.112 11.0385 206.706 10.76C206.3 10.4813 205.805 10.3411 205.224 10.3411H199.221V10.3051H205.224C206.139 10.3051 206.936 10.4234 207.615 10.6595C208.3 10.8901 208.83 11.2536 209.207 11.7513C209.582 12.2422 209.771 12.8815 209.771 13.6702C209.771 14.4581 209.595 15.0943 209.243 15.5802C208.892 16.0592 208.376 16.4102 207.697 16.6353C207.024 16.8529 206.2 16.9616 205.224 16.9616H202.495ZM199.221 23.91H204.951V23.9471H199.221V23.91ZM201.212 10.3231H202.95V23.9278H201.212V10.3231ZM209.679 24.0373C209.153 24.0373 208.74 23.9381 208.443 23.7375C208.152 23.5371 207.939 23.2706 207.806 22.9374C207.673 22.5976 207.588 22.2187 207.551 21.8009C207.521 21.3819 207.504 20.9486 207.497 20.4996C207.491 20.0517 207.467 19.6179 207.424 19.1992C207.382 18.7813 207.287 18.4047 207.143 18.0715C206.996 17.7318 206.764 17.4619 206.442 17.2627C206.126 17.062 205.691 16.9616 205.132 16.9616H202.495V16.926H205.497C206.387 16.926 207.093 17.0533 207.615 17.308C208.143 17.5624 208.534 17.8986 208.788 18.3178C209.049 18.7301 209.221 19.1868 209.306 19.6908C209.392 20.1876 209.434 20.6876 209.434 21.1915C209.44 21.6885 209.449 22.1463 209.461 22.5641C209.473 22.9763 209.537 23.3095 209.653 23.5646C209.768 23.8198 209.986 23.9471 210.307 23.9471C210.501 23.9471 210.683 23.9259 210.853 23.8833C211.022 23.8412 211.171 23.7885 211.298 23.7284L211.316 23.7465C211.171 23.8254 210.962 23.8924 210.689 23.9471C210.416 24.0069 210.08 24.0373 209.679 24.0373ZM216.789 24.2197C215.969 24.2197 215.281 24.092 214.724 23.8378C214.172 23.5826 213.717 23.2373 213.36 22.8006L212.368 24.1285H212.331V20.4004H212.368C212.47 20.9394 212.629 21.4396 212.841 21.9001C213.053 22.3547 213.329 22.7523 213.668 23.0925C214.014 23.431 214.429 23.6952 214.914 23.8833C215.406 24.0705 215.982 24.1651 216.642 24.1651C217.285 24.1651 217.849 24.0493 218.334 23.8198C218.818 23.589 219.198 23.2496 219.47 22.8006C219.743 22.3457 219.88 21.789 219.88 21.1279C219.88 20.5942 219.747 20.142 219.481 19.7718C219.213 19.402 218.862 19.081 218.425 18.8083C217.988 18.535 217.506 18.2811 216.979 18.0449C216.457 17.8073 215.933 17.5624 215.406 17.308C214.884 17.0533 214.405 16.7589 213.968 16.4257C213.532 16.0858 213.181 15.6804 212.914 15.2068C212.647 14.7344 212.514 14.1604 212.514 13.4887C212.514 12.8213 212.687 12.2363 213.032 11.7326C213.383 11.2235 213.845 10.8288 214.414 10.5502C214.984 10.2652 215.606 10.1237 216.279 10.1237C216.897 10.1237 217.455 10.2206 217.952 10.4144C218.45 10.6086 218.873 10.9114 219.225 11.3237L220.208 10.1237H220.244V13.8518H220.208C220.087 13.0096 219.852 12.3173 219.507 11.7785C219.167 11.2392 218.737 10.8411 218.216 10.5874C217.694 10.3263 217.109 10.1964 216.461 10.1964C215.587 10.1964 214.923 10.4144 214.469 10.8515C214.014 11.2815 213.787 11.8575 213.787 12.5784C213.787 13.0575 213.917 13.4666 214.178 13.8062C214.438 14.1391 214.782 14.4368 215.205 14.6977C215.63 14.9531 216.096 15.1981 216.606 15.4344C217.121 15.6649 217.634 15.9165 218.143 16.1898C218.658 16.4562 219.128 16.7711 219.553 17.1346C219.977 17.4991 220.319 17.938 220.58 18.4536C220.841 18.9629 220.971 19.5814 220.971 20.3092C220.971 21.0967 220.802 21.7853 220.462 22.3737C220.122 22.9552 219.637 23.4101 219.007 23.7375C218.383 24.0585 217.643 24.2197 216.789 24.2197Z" fill="#2B2A29"/>
<path d="M69.9352 24.3344L65.0873 11.0814V23.9615H66.5055V24.2271H63.4957V23.9615H64.823V10.5389H63.4141V10.2743H66.7821L70.9087 21.4174L74.8501 10.3197V10.2743H78.0985V10.5389H76.8173V23.9615H78.0985V24.2271H73.3772V23.9615H74.8501V11.1047L70.1495 24.4098H69.9628L69.9352 24.3344ZM65.1184 10.503L70.0539 23.9957L70.8187 21.8313L66.6233 10.503H65.1184ZM76.5888 23.9987V10.503H75.0785V23.9987H76.5888ZM82.1643 19.5148H86.5602L84.4512 12.978L82.1643 19.5148ZM86.7996 19.5148H87.9091V19.7802H86.8852L88.2462 23.9987H90.0084L85.2968 10.4073L84.5512 12.5458L86.7996 19.5148ZM86.6458 19.7802H82.0715L80.6088 23.9615H82.7854V24.2271H78.5312V23.9615H80.3305L81.8617 19.5692V19.5148H81.8806L85.1976 10H85.3962L90.2362 23.9615H91.569V24.2271H86.034V23.9615H87.9948L86.6458 19.7802ZM92.0052 24.1129V23.9615H93.643V10.5389H92.0052V10.2743H97.2567V10.5389H95.6191V23.9615H98.3319C98.6853 23.9615 99.0051 23.9369 99.2907 23.8879C99.5747 23.8393 99.8251 23.7668 100.041 23.671C100.258 23.5715 100.449 23.4529 100.615 23.3161C100.78 23.1804 100.92 23.0256 101.036 22.8521C101.154 22.6717 101.254 22.4772 101.334 22.2691C101.415 22.0592 101.478 21.8342 101.522 21.5947C101.567 21.3498 101.601 21.0931 101.624 20.8254C101.647 20.5592 101.658 20.2826 101.658 19.9954V19.8812H101.922V24.2271H92.0052V24.1129ZM93.8715 10.503V23.9987H95.3906V10.503H93.8715ZM100.134 23.8784C100.033 23.9234 99.926 23.9633 99.8126 23.9987H101.694V21.8809C101.654 22.0445 101.604 22.2013 101.547 22.3511C101.459 22.5762 101.353 22.7851 101.227 22.9771C101.098 23.1694 100.943 23.341 100.76 23.4919C100.579 23.6413 100.37 23.7701 100.136 23.8779L100.134 23.8784ZM102.406 24.1129V23.9615H104.409V10.5389H102.406V10.2743H108.581V10.5389H106.385V23.9615H108.581V24.2271H102.406V24.1129ZM104.637 10.503V23.9987H106.156V10.503H104.637ZM109.017 24.1129V23.9615H110.655V10.5389H109.017V10.2743H114.438C115.138 10.2743 115.77 10.3427 116.333 10.479C116.899 10.6162 117.395 10.8222 117.82 11.0975C118.256 11.3737 118.583 11.7374 118.802 12.1872C119.018 12.6333 119.127 13.1625 119.127 13.7742C119.127 14.385 119.025 14.9111 118.821 15.3521C118.615 15.7971 118.306 16.1541 117.894 16.4222C117.49 16.6829 116.998 16.8777 116.418 17.0071L116.251 17.042C116.581 17.0931 116.899 17.1628 117.204 17.2509C117.573 17.3565 117.906 17.4968 118.203 17.6716C118.502 17.8466 118.763 18.0558 118.987 18.2986C119.214 18.5451 119.384 18.8339 119.498 19.1648C119.61 19.4926 119.666 19.8612 119.666 20.2703C119.666 20.9716 119.557 21.5764 119.339 22.0834C119.119 22.5952 118.788 23.0073 118.346 23.3184C117.914 23.6224 117.401 23.8504 116.808 24.0017C116.219 24.1518 115.551 24.2271 114.803 24.2271H109.017V24.1129ZM110.883 23.9615H112.403V17.1996H112.31V16.9352H112.403V10.5389H110.883V23.9615ZM112.631 23.9615H114.612C114.862 23.9615 115.102 23.9224 115.333 23.8442C115.564 23.7656 115.786 23.6477 115.998 23.4907C116.213 23.3291 116.406 23.1384 116.578 22.9188C116.752 22.6979 116.904 22.4482 117.034 22.1702L117.035 22.1692C117.168 21.8918 117.268 21.5947 117.334 21.2787C117.401 20.9624 117.435 20.6259 117.435 20.2703C117.435 19.9149 117.401 19.5923 117.335 19.3025C117.269 19.0147 117.17 18.7583 117.039 18.534L117.038 18.5332C116.909 18.3071 116.759 18.1112 116.589 17.9452C116.419 17.7796 116.227 17.6429 116.015 17.5357L116.014 17.5354C115.799 17.4231 115.575 17.3389 115.342 17.2832C115.11 17.2277 114.866 17.1996 114.612 17.1996H112.631V23.9615ZM116.135 23.6731C115.978 23.7892 115.816 23.8858 115.649 23.9628C116.045 23.9279 116.412 23.8669 116.752 23.7802C117.318 23.6358 117.806 23.4194 118.215 23.1318C118.621 22.8457 118.926 22.466 119.129 21.9931C119.335 21.5152 119.438 20.9408 119.438 20.2703C119.438 19.8857 119.386 19.5416 119.282 19.2381C119.179 18.9378 119.024 18.676 118.819 18.453C118.61 18.2262 118.366 18.0311 118.088 17.868C117.809 17.7039 117.493 17.5711 117.142 17.47C116.788 17.3676 116.416 17.2909 116.026 17.2398L115.886 17.2226C115.965 17.2561 116.043 17.2928 116.119 17.3327C116.352 17.4505 116.561 17.6005 116.747 17.7818C116.934 17.9634 117.097 18.1761 117.236 18.4198C117.379 18.6648 117.486 18.9423 117.557 19.2517C117.628 19.5595 117.663 19.8992 117.663 20.2703C117.663 20.6399 117.628 20.9919 117.557 21.3251C117.487 21.658 117.381 21.9719 117.24 22.2666C117.102 22.5622 116.941 22.8267 116.758 23.0599C116.574 23.2945 116.366 23.499 116.135 23.6726L116.135 23.6731ZM112.631 16.9352H114.448C114.669 16.9343 114.882 16.9089 115.089 16.8586C115.298 16.8077 115.503 16.7305 115.703 16.6274C115.904 16.5261 116.085 16.396 116.248 16.2379C116.411 16.0793 116.555 15.8912 116.681 15.6743C116.81 15.4553 116.907 15.2037 116.971 14.9194C117.036 14.6328 117.069 14.3119 117.069 13.9568C117.069 13.6013 117.036 13.2712 116.971 12.9672C116.906 12.664 116.808 12.386 116.678 12.1331L116.678 12.1318C116.551 11.8748 116.405 11.6473 116.24 11.4498C116.076 11.2535 115.893 11.0867 115.691 10.9493C115.492 10.8119 115.289 10.7091 115.079 10.6408C114.872 10.5729 114.658 10.5389 114.438 10.5389H112.631V16.9352ZM115.807 16.8301C115.756 16.8567 115.704 16.8817 115.652 16.9051C115.905 16.8751 116.144 16.8352 116.369 16.7848C116.921 16.6617 117.388 16.4769 117.771 16.2306C118.145 15.9867 118.427 15.6617 118.614 15.2564C118.804 14.8465 118.898 14.3523 118.898 13.7742C118.898 13.1965 118.798 12.7005 118.597 12.2863C118.397 11.8758 118.098 11.5435 117.698 11.2899L117.697 11.2892C117.294 11.0278 116.821 10.8314 116.28 10.7004C116.029 10.6395 115.762 10.5928 115.48 10.5599C115.595 10.6172 115.708 10.6843 115.819 10.7612C116.039 10.9105 116.237 11.0912 116.415 11.3034C116.591 11.5142 116.747 11.7569 116.882 12.0309C117.021 12.3023 117.125 12.5987 117.194 12.9199C117.263 13.2404 117.298 13.5861 117.298 13.9568C117.298 14.3269 117.263 14.6647 117.194 14.9693C117.124 15.2765 117.018 15.5497 116.878 15.7885C116.742 16.023 116.585 16.2275 116.407 16.4013C116.228 16.5755 116.028 16.7185 115.807 16.8301ZM132.849 10.3886V10.5389H131.037V19.9035C131.037 20.6664 130.957 21.3346 130.797 21.9078C130.636 22.4866 130.392 22.9689 130.067 23.3537C129.739 23.7384 129.307 24.0266 128.769 24.2179C128.238 24.407 127.605 24.5016 126.869 24.5016C126.069 24.5016 125.373 24.4122 124.783 24.2336C124.186 24.053 123.697 23.781 123.315 23.4176C122.935 23.0503 122.65 22.5714 122.461 21.9812C122.274 21.3975 122.181 20.7047 122.181 19.9035V10.5389H120.543V10.2743H125.986V10.5389H124.157V19.7208C124.157 20.3207 124.199 20.8906 124.283 21.4316C124.328 21.7003 124.389 21.9543 124.466 22.1927C124.544 22.4306 124.638 22.6537 124.748 22.8614C124.858 23.0648 124.991 23.2478 125.146 23.4097C125.3 23.571 125.476 23.7122 125.675 23.8323C125.875 23.9476 126.105 24.0349 126.362 24.093C126.623 24.1517 126.914 24.1812 127.236 24.1812C127.637 24.1812 128.001 24.1428 128.331 24.0658C128.658 23.9893 128.951 23.8747 129.209 23.722C129.469 23.5671 129.696 23.3731 129.891 23.1406C130.087 22.9068 130.249 22.6338 130.378 22.3219C130.509 22.0042 130.607 21.6441 130.673 21.2423C130.739 20.8392 130.772 20.3928 130.772 19.9035V10.5389H129.043V10.2743H132.849V10.3886ZM124.849 24.0149C125.2 24.1213 125.592 24.1949 126.024 24.2355C125.856 24.1799 125.701 24.1108 125.559 24.0288L125.557 24.0279C125.342 23.8974 125.15 23.7435 124.981 23.5668C124.813 23.3904 124.668 23.1912 124.547 22.9689L124.546 22.9677C124.43 22.7485 124.331 22.5135 124.25 22.2632C124.169 22.0138 124.105 21.7488 124.058 21.469V21.4677C123.971 20.9113 123.928 20.3292 123.928 19.7208V10.503H122.409V19.9035C122.409 20.6826 122.499 21.3518 122.678 21.9115C122.855 22.4654 123.12 22.9126 123.473 23.2529C123.828 23.5907 124.287 23.8448 124.849 24.0149Z" fill="#2B2A29" stroke="#2B2A29" stroke-width="0.0879453" stroke-miterlimit="22.9256"/>
<path d="M143.779 19.0722C143.779 18.878 143.758 18.7003 143.715 18.5393C143.673 18.3802 143.609 18.2355 143.525 18.1065L143.525 18.1057C143.441 17.9743 143.337 17.8586 143.211 17.7586C143.085 17.6576 142.937 17.5725 142.768 17.5036C142.596 17.4344 142.403 17.3817 142.19 17.3467C141.977 17.3118 141.741 17.2937 141.483 17.2937H140.778V23.7964H142.597V24.0605H137.186V23.7964H138.813V10.4546H137.186V10.1916H146.78V14.1471H146.516V14.0337C146.516 13.7158 146.49 13.4092 146.439 13.1145C146.387 12.8197 146.309 12.536 146.206 12.2638C146.103 11.9919 145.972 11.7461 145.811 11.5274C145.651 11.3083 145.461 11.1156 145.243 10.9502L145.242 10.95C145.029 10.7861 144.785 10.6625 144.508 10.5797C144.23 10.4964 143.919 10.4546 143.574 10.4546H140.778V17.0311H141.483C141.742 17.0311 141.978 17.0152 142.193 16.9846C142.406 16.9535 142.599 16.9075 142.771 16.8464C142.94 16.7837 143.088 16.7055 143.213 16.6125C143.338 16.5201 143.443 16.4124 143.527 16.2895C143.61 16.1667 143.673 16.027 143.715 15.8709C143.758 15.7127 143.779 15.5368 143.779 15.344V15.2304H144.042V19.1858H143.779V19.0722ZM143.715 17.9833C143.752 18.0397 143.785 18.0987 143.815 18.1597V16.2438C143.785 16.3042 143.751 16.3619 143.714 16.4169C143.616 16.5607 143.494 16.6868 143.348 16.7943C143.204 16.901 143.038 16.9896 142.849 17.0594L142.848 17.0597C142.726 17.1029 142.595 17.1391 142.455 17.1684C142.597 17.2019 142.73 17.2439 142.853 17.2936C143.042 17.3705 143.209 17.4667 143.352 17.5812C143.496 17.6961 143.617 17.8303 143.715 17.9833ZM140.551 17.2937H140.187V17.0311H140.551V10.4188H139.04V23.8336H140.551V17.2937ZM146.553 12.594V10.4188H144.742C144.977 10.5062 145.19 10.6236 145.381 10.7706C145.617 10.9503 145.822 11.1579 145.994 11.3934C146.167 11.6287 146.308 11.8925 146.418 12.184C146.469 12.3182 146.514 12.4551 146.553 12.594ZM147.418 23.9472V23.7964H149.044V10.4546H147.418V10.1916H152.637V10.4546H151.009V23.7964H153.705C154.057 23.7964 154.376 23.7721 154.66 23.7233C154.942 23.6749 155.19 23.6029 155.405 23.5079C155.62 23.4085 155.81 23.2909 155.975 23.1551C156.139 23.0203 156.279 22.866 156.394 22.6941C156.511 22.5151 156.609 22.322 156.689 22.1159C156.77 21.9068 156.833 21.6826 156.878 21.4438C156.922 21.2005 156.956 20.9456 156.978 20.6791C157 20.4149 157.011 20.1396 157.011 19.8542V19.7406H157.275V24.0605H147.418V23.9472ZM149.272 10.4188V23.8336H150.782V10.4188H149.272ZM155.498 23.714C155.397 23.7588 155.291 23.7983 155.178 23.8336H157.048V21.7267C157.008 21.8905 156.959 22.0475 156.9 22.1973C156.814 22.4207 156.708 22.6276 156.583 22.8181L156.582 22.819C156.455 23.0095 156.301 23.1802 156.119 23.3296C155.938 23.4787 155.732 23.6067 155.5 23.7136L155.498 23.714ZM164.116 24.242C163.648 24.242 163.204 24.1963 162.785 24.105C162.366 24.014 161.971 23.8763 161.602 23.6931L161.601 23.6928C161.233 23.5077 160.892 23.286 160.579 23.0288C160.266 22.7717 159.982 22.4794 159.725 22.1529L159.725 22.152C159.472 21.8247 159.249 21.4722 159.057 21.0954C158.865 20.7187 158.702 20.3158 158.57 19.8874C158.438 19.4572 158.338 19.0116 158.272 18.5515C158.206 18.0906 158.173 17.615 158.173 17.1255C158.173 16.6356 158.208 16.1605 158.277 15.7008C158.346 15.2429 158.45 14.7996 158.588 14.3721C158.729 13.9409 158.9 13.5365 159.1 13.158C159.3 12.78 159.53 12.4266 159.789 12.0994L159.79 12.0986C160.052 11.7711 160.341 11.4796 160.655 11.2243C160.969 10.9693 161.308 10.7504 161.673 10.5675C162.039 10.382 162.426 10.2423 162.834 10.1493C163.242 10.0565 163.67 10.0103 164.116 10.0103C164.564 10.0103 164.991 10.0565 165.397 10.1493C165.802 10.2421 166.187 10.3818 166.55 10.5677C166.915 10.7505 167.254 10.9693 167.567 11.2246C167.879 11.4795 168.165 11.771 168.424 12.0986C168.686 12.4256 168.918 12.779 169.118 13.158C169.318 13.5363 169.488 13.9409 169.626 14.3721C169.765 14.7996 169.868 15.2429 169.937 15.7008C170.006 16.1605 170.041 16.6356 170.041 17.1255C170.041 17.615 170.008 18.0906 169.942 18.5515C169.876 19.0113 169.777 19.4565 169.645 19.8864C169.516 20.3136 169.356 20.7163 169.165 21.0938C168.974 21.472 168.751 21.8247 168.498 22.152C168.244 22.4799 167.962 22.7725 167.651 23.029C167.34 23.2857 167.001 23.507 166.632 23.6928L166.631 23.6931C166.262 23.8763 165.867 24.0139 165.448 24.105C165.029 24.1963 164.585 24.242 164.116 24.242ZM161.702 23.4904C161.922 23.5988 162.15 23.6908 162.389 23.7659C162.294 23.7069 162.203 23.6421 162.117 23.5713L162.115 23.5698C161.862 23.3564 161.638 23.1097 161.444 22.8301C161.251 22.5516 161.088 22.2402 160.955 21.8964C160.822 21.5512 160.711 21.1885 160.62 20.8079C160.53 20.4284 160.461 20.0297 160.412 19.6121C160.363 19.1983 160.326 18.783 160.302 18.3673C160.277 17.9503 160.265 17.5365 160.265 17.1255C160.265 16.7106 160.279 16.2948 160.306 15.878C160.333 15.4647 160.375 15.051 160.43 14.6373C160.488 14.2203 160.566 13.8225 160.664 13.4436C160.763 13.0629 160.881 12.7027 161.019 12.363C161.162 12.0151 161.332 11.7023 161.527 11.4249C161.724 11.1453 161.947 10.9004 162.198 10.691C162.289 10.6131 162.385 10.5424 162.486 10.4786C162.24 10.5567 162.003 10.6536 161.775 10.7696C161.425 10.9444 161.099 11.1548 160.798 11.3997C160.497 11.6447 160.219 11.9251 159.966 12.2402C159.717 12.5554 159.495 12.8966 159.301 13.2635C159.107 13.6308 158.941 14.0237 158.804 14.4419C158.669 14.856 158.569 15.2872 158.501 15.7345C158.434 16.1819 158.401 16.6457 158.401 17.1255C158.401 17.6067 158.433 18.0713 158.497 18.5195C158.561 18.9686 158.658 19.4024 158.786 19.8211C158.914 20.2353 159.072 20.6262 159.259 20.9925C159.445 21.3576 159.66 21.6979 159.904 22.0129C160.151 22.3279 160.424 22.6087 160.723 22.8544C161.022 23.0999 161.349 23.3122 161.702 23.4904ZM166.448 10.7694C166.22 10.6528 165.984 10.5558 165.739 10.4772C165.839 10.5414 165.934 10.6128 166.025 10.691C166.276 10.9002 166.499 11.1452 166.694 11.425C166.889 11.7035 167.056 12.0166 167.196 12.3637C167.336 12.7042 167.456 13.0644 167.554 13.4434C167.652 13.8221 167.729 14.2202 167.785 14.6373C167.839 15.051 167.881 15.4647 167.908 15.878C167.936 16.2948 167.949 16.7106 167.949 17.1255C167.949 17.5365 167.937 17.9503 167.913 18.3673C167.888 18.783 167.851 19.1983 167.803 19.6121C167.757 20.0291 167.689 20.4277 167.601 20.8071C167.512 21.1865 167.401 21.5494 167.269 21.8957C167.135 22.2407 166.972 22.5525 166.779 22.8309C166.585 23.1101 166.362 23.3567 166.108 23.5698C166.022 23.6424 165.931 23.7083 165.836 23.7682C166.077 23.6928 166.309 23.6 166.531 23.4904C166.883 23.3129 167.208 23.1005 167.507 22.8544C167.805 22.6077 168.076 22.3272 168.319 22.0138C168.563 21.6979 168.778 21.3568 168.963 20.9918C169.147 20.6268 169.303 20.2367 169.428 19.8217L169.428 19.8211C169.557 19.4024 169.653 18.9686 169.717 18.5195C169.782 18.0713 169.814 17.6067 169.814 17.1255C169.814 16.6457 169.78 16.1819 169.713 15.7345C169.646 15.2869 169.545 14.8557 169.411 14.4416C169.276 14.0237 169.112 13.6309 168.918 13.2635C168.724 12.8971 168.501 12.5561 168.248 12.2402L168.247 12.2394C167.998 11.9251 167.724 11.6451 167.424 11.4001C167.124 11.1549 166.798 10.9444 166.448 10.7694ZM164.116 23.9784C164.502 23.9784 164.849 23.9293 165.158 23.8315C165.463 23.7346 165.732 23.5894 165.962 23.3963C166.2 23.1969 166.41 22.9651 166.593 22.7023C166.775 22.4382 166.93 22.1423 167.057 21.8147C167.185 21.4813 167.293 21.1284 167.38 20.7555C167.467 20.3834 167.533 19.9938 167.577 19.5875C167.626 19.1747 167.662 18.7638 167.686 18.3539C167.71 17.9473 167.722 17.5378 167.722 17.1255C167.722 16.7107 167.709 16.2995 167.682 15.8921C167.655 15.4808 167.614 15.0721 167.56 14.6666C167.506 14.2592 167.431 13.87 167.335 13.5001C167.24 13.131 167.123 12.7801 166.986 12.4487L166.985 12.4478C166.852 12.1167 166.693 11.8184 166.509 11.5546C166.325 11.2924 166.116 11.0621 165.88 10.8649L165.879 10.8639C165.651 10.6673 165.39 10.5196 165.099 10.4214C164.805 10.3223 164.478 10.2728 164.116 10.2728C163.755 10.2728 163.426 10.3223 163.131 10.4214C162.838 10.5198 162.575 10.6674 162.344 10.8642C162.108 11.0618 161.898 11.2923 161.712 11.555C161.526 11.8199 161.365 12.1178 161.229 12.4481C161.094 12.7812 160.978 13.1322 160.883 13.5003C160.788 13.8699 160.711 14.2592 160.654 14.6674C160.6 15.0728 160.56 15.481 160.532 15.8921C160.506 16.2995 160.492 16.7107 160.492 17.1255C160.492 17.5378 160.504 17.9473 160.528 18.3539C160.552 18.7638 160.589 19.1747 160.637 19.5865C160.685 19.9932 160.753 20.3831 160.841 20.7555C160.929 21.1267 161.038 21.4802 161.166 21.8154C161.293 22.1423 161.448 22.4376 161.631 22.7013C161.813 22.9642 162.023 23.1958 162.259 23.3956C162.496 23.5888 162.769 23.7343 163.077 23.8316C163.387 23.9293 163.734 23.9784 164.116 23.9784ZM176.652 24.1618L172.393 10.4546H170.744V10.1916H183.695V10.4546H182.265L180.664 15.1957L182.48 21.0636L186.339 10.4546H184.386V10.1916H188.242V10.4546H186.634L181.623 24.242H181.424L179.376 17.6331L176.875 24.242H176.677L176.652 24.1618ZM172.619 10.4188L176.787 23.8342L177.668 21.5045L174.201 10.4188H172.619ZM178.949 10.4188H177.376L179.37 16.8514L179.575 16.3102L179.718 16.7275L179.506 17.2886L181.533 23.8278L182.379 21.5013L180.54 15.5598L180.345 15.2693L180.4 15.1074L178.949 10.4188ZM181.963 10.4546H179.197L180.523 14.7404L181.963 10.4546ZM179.24 17.1956L177.15 10.4546H174.45L177.771 21.0719L179.24 17.1956ZM188.52 23.9472V23.7964H190.148V10.4546H188.52V10.1916H198.287V14.1471H198.032V14.0337C198.032 13.7158 198.006 13.4092 197.954 13.1145C197.903 12.8197 197.825 12.536 197.722 12.2638C197.619 11.9919 197.487 11.7461 197.327 11.5274C197.166 11.3083 196.977 11.1156 196.759 10.9502L196.758 10.95C196.545 10.7861 196.3 10.6625 196.023 10.5796C195.745 10.4964 195.434 10.4546 195.09 10.4546H192.112V16.7582H193.089C193.254 16.7582 193.412 16.7407 193.564 16.7066C193.716 16.6719 193.863 16.6201 194.003 16.5516L194.004 16.5512C194.146 16.4829 194.274 16.3991 194.388 16.2998C194.501 16.2007 194.601 16.0859 194.686 15.9556C194.77 15.8233 194.833 15.6764 194.875 15.5151C194.918 15.3524 194.94 15.1739 194.94 14.9796V14.8661H195.204V19.0042H194.94V18.8907C194.94 18.696 194.918 18.5159 194.875 18.3503C194.833 18.1858 194.769 18.0341 194.684 17.8943C194.599 17.7545 194.499 17.6309 194.385 17.5244C194.272 17.4183 194.144 17.3282 194.001 17.2542L193.998 17.2524C193.859 17.1755 193.713 17.1176 193.561 17.0789C193.41 17.0403 193.252 17.0206 193.089 17.0206H192.112V23.7964H194.909C195.314 23.7964 195.678 23.7537 196 23.6687C196.319 23.5847 196.597 23.4582 196.835 23.2906C197.077 23.1186 197.285 22.9159 197.459 22.6836C197.634 22.4505 197.775 22.1853 197.884 21.8891C197.994 21.5886 198.077 21.2696 198.132 20.9323C198.186 20.594 198.214 20.2345 198.214 19.8542V19.7406H198.477V24.0605H188.52V23.9472ZM190.375 10.4188V23.8336H191.885V17.0206H191.157V16.7582H191.885V10.4188H190.375ZM198.06 10.4188H196.257C196.492 10.5062 196.705 10.6236 196.896 10.7706C197.133 10.9503 197.337 11.1579 197.51 11.3934C197.683 11.6287 197.824 11.8928 197.934 12.184C197.981 12.3081 198.023 12.4344 198.06 12.5625V10.4188ZM196.965 23.4756C196.753 23.6258 196.511 23.7448 196.242 23.8336H198.25V21.4726C198.207 21.6427 198.155 21.8076 198.097 21.9672C197.982 22.2827 197.829 22.567 197.64 22.8192C197.451 23.0712 197.226 23.2901 196.965 23.4756ZM194.877 17.7764C194.914 17.8366 194.947 17.8986 194.977 17.9628V15.8958C194.947 15.9587 194.913 16.0195 194.876 16.0778L194.875 16.0786C194.779 16.2264 194.666 16.3571 194.537 16.4701C194.408 16.5826 194.263 16.6778 194.102 16.7552C193.985 16.8123 193.864 16.8587 193.741 16.8946C193.865 16.9352 193.987 16.9879 194.105 17.0527C194.265 17.1358 194.41 17.2379 194.54 17.3595C194.669 17.4798 194.781 17.6189 194.877 17.7764ZM202.379 16.9616V16.8126H202.835V10.4546H201.324V23.7964H202.835V17.0753H202.379V16.9616ZM203.062 16.8126H205.235C205.511 16.8116 205.766 16.7793 206 16.7165C206.236 16.6528 206.45 16.5577 206.642 16.4318C206.835 16.3043 207.006 16.1511 207.153 15.972C207.301 15.7927 207.426 15.5864 207.528 15.354C207.631 15.1155 207.708 14.8562 207.759 14.5775C207.81 14.2978 207.836 13.9949 207.836 13.6703C207.836 13.3454 207.81 13.0422 207.759 12.7605C207.708 12.4793 207.63 12.2181 207.528 11.9773C207.426 11.7349 207.3 11.52 207.152 11.3323C207.005 11.1464 206.834 10.9867 206.64 10.8538C206.447 10.7212 206.233 10.6216 205.998 10.5551C205.761 10.4883 205.503 10.4546 205.222 10.4546H203.062V16.8126ZM206.766 16.6208C206.678 16.6787 206.586 16.7307 206.49 16.7766L206.557 16.7681C206.963 16.7144 207.331 16.6344 207.661 16.5278C207.989 16.4187 208.278 16.2792 208.527 16.1096C208.774 15.941 208.982 15.7424 209.149 15.514C209.317 15.2816 209.444 15.0131 209.528 14.7083C209.613 14.4007 209.656 14.0547 209.656 13.6703C209.656 13.2865 209.61 12.94 209.52 12.6315C209.43 12.3251 209.295 12.0543 209.116 11.8202C208.934 11.5808 208.716 11.3734 208.461 11.1987C208.204 11.0228 207.909 10.8787 207.577 10.7669L207.576 10.7666C207.246 10.6517 206.887 10.5653 206.499 10.5076C206.593 10.5548 206.682 10.6079 206.768 10.6665C206.98 10.812 207.168 10.9875 207.329 11.1921C207.49 11.3956 207.626 11.6277 207.736 11.8888C207.845 12.1447 207.927 12.4217 207.982 12.7195C208.036 13.0172 208.063 13.3342 208.063 13.6703C208.063 14.0063 208.036 14.3223 207.982 14.6183C207.927 14.9155 207.845 15.1905 207.736 15.4435C207.626 15.6953 207.49 15.9193 207.328 16.1156C207.166 16.3122 206.979 16.4805 206.766 16.6208ZM201.097 10.4546H199.106V10.1916H205.222C206.149 10.1916 206.959 10.3122 207.65 10.5529C208.003 10.6715 208.316 10.8245 208.589 11.0117C208.865 11.2005 209.1 11.4244 209.296 11.6833C209.492 11.9395 209.639 12.2345 209.737 12.5677C209.834 12.8985 209.883 13.2661 209.883 13.6703C209.883 14.0735 209.837 14.4399 209.746 14.7688C209.655 15.1002 209.517 15.393 209.333 15.647C209.149 15.8971 208.923 16.1136 208.655 16.2965C208.389 16.4778 208.081 16.6266 207.731 16.7428L207.73 16.7434C207.472 16.8266 207.193 16.894 206.892 16.9462C207.18 17.0099 207.437 17.0964 207.662 17.2063C207.935 17.3379 208.174 17.4911 208.376 17.6653C208.58 17.8399 208.749 18.0379 208.882 18.2577C209.017 18.4704 209.129 18.6946 209.218 18.93C209.306 19.1653 209.373 19.4127 209.416 19.6715C209.46 19.9234 209.492 20.1759 209.514 20.4291C209.536 20.6828 209.546 20.9372 209.546 21.1915C209.548 21.4378 209.552 21.6765 209.557 21.9054C209.561 22.1322 209.567 22.351 209.573 22.561C209.578 22.7601 209.597 22.9404 209.628 23.1022C209.658 23.2596 209.7 23.3986 209.755 23.5182C209.802 23.6235 209.869 23.702 209.958 23.7534C210.048 23.8071 210.164 23.8336 210.305 23.8336C210.49 23.8336 210.664 23.8135 210.824 23.7737C210.906 23.7532 210.981 23.7305 211.051 23.7062C211.121 23.6823 211.186 23.6555 211.248 23.626L211.32 23.5918L211.502 23.773L211.369 23.8458C211.29 23.8884 211.195 23.9279 211.083 23.9636C210.972 23.9991 210.847 24.031 210.709 24.0585C210.571 24.0887 210.414 24.112 210.239 24.1273C210.064 24.1429 209.877 24.1508 209.678 24.1508C209.407 24.1508 209.163 24.1247 208.947 24.0727C208.727 24.0194 208.537 23.9392 208.377 23.8318L208.377 23.8306C208.221 23.7236 208.087 23.5988 207.974 23.457C207.862 23.3159 207.77 23.1562 207.7 22.9791C207.631 22.8048 207.575 22.6196 207.531 22.4231C207.487 22.2276 207.455 22.023 207.437 21.8105V21.8087C207.422 21.6028 207.41 21.3883 207.401 21.166C207.392 20.9506 207.385 20.7287 207.382 20.5009C207.379 20.2829 207.372 20.0654 207.36 19.8494C207.348 19.6314 207.331 19.4183 207.31 19.2104C207.29 19.0084 207.256 18.8159 207.211 18.6327C207.165 18.4491 207.107 18.277 207.037 18.1163C206.968 17.957 206.879 17.814 206.771 17.6885C206.662 17.5622 206.531 17.4524 206.381 17.3591L206.379 17.3585C206.232 17.2652 206.056 17.1945 205.851 17.1474C205.645 17.1002 205.409 17.076 205.143 17.0753H203.062V23.7964H205.062V24.0605H199.106V23.7964H201.097V10.4546ZM209 23.8528C209.196 23.9 209.422 23.9239 209.678 23.9239L209.801 23.9229C209.692 23.8486 209.608 23.7446 209.548 23.6113C209.486 23.4759 209.439 23.3202 209.405 23.1447C209.372 22.973 209.353 22.7806 209.347 22.5675C209.34 22.3595 209.335 22.1404 209.33 21.9095C209.326 21.6815 209.322 21.442 209.32 21.1926L209.319 21.1915C209.319 20.9424 209.309 20.6943 209.288 20.4478C209.267 20.2008 209.235 19.9544 209.193 19.7097C209.152 19.4647 209.089 19.2316 209.006 19.0101C208.922 18.7882 208.817 18.5775 208.691 18.3783L208.69 18.3765C208.569 18.1782 208.416 17.9985 208.229 17.8374C208.041 17.6751 207.819 17.5326 207.564 17.4102L207.563 17.4099C207.312 17.287 207.015 17.1945 206.673 17.1329C206.572 17.1147 206.467 17.0993 206.358 17.0864C206.408 17.1114 206.455 17.1381 206.501 17.1671C206.671 17.2728 206.818 17.3972 206.942 17.5405C207.066 17.6845 207.168 17.8466 207.245 18.0268C207.32 18.2002 207.382 18.3843 207.43 18.5778C207.478 18.7696 207.514 18.9734 207.535 19.1883C207.557 19.4018 207.574 19.618 207.586 19.8367C207.598 20.0511 207.605 20.2719 207.608 20.4981C207.612 20.7195 207.618 20.9394 207.627 21.1572C207.636 21.3677 207.648 21.5786 207.663 21.7912C207.681 21.9964 207.71 22.1909 207.751 22.3736C207.792 22.5567 207.845 22.7309 207.91 22.8962C207.972 23.0513 208.053 23.1913 208.152 23.3161C208.251 23.4408 208.369 23.5501 208.504 23.6437C208.642 23.7365 208.807 23.8061 209 23.8528ZM216.787 24.3333C216.372 24.3333 215.988 24.3007 215.636 24.2357C215.283 24.17 214.962 24.0718 214.675 23.9405C214.392 23.8102 214.134 23.6555 213.899 23.4773C213.703 23.3284 213.525 23.1633 213.364 22.9822L212.423 24.242H212.216V20.2866H212.46L212.478 20.3794C212.528 20.6434 212.592 20.8989 212.67 21.1447C212.747 21.3903 212.838 21.6268 212.942 21.8526C213.045 22.0737 213.164 22.2813 213.298 22.4749C213.432 22.667 213.581 22.8461 213.747 23.0121C213.913 23.1754 214.097 23.321 214.298 23.4488C214.5 23.5769 214.718 23.6868 214.953 23.7779C215.192 23.8685 215.453 23.9374 215.733 23.9828C216.013 24.0285 216.316 24.0517 216.641 24.0517C216.955 24.0517 217.249 24.0236 217.522 23.9682C217.795 23.9123 218.049 23.8286 218.284 23.7176C218.517 23.6062 218.725 23.4692 218.906 23.307C219.086 23.1449 219.242 22.9566 219.372 22.7424C219.502 22.5247 219.6 22.2822 219.666 22.0149C219.732 21.7455 219.765 21.4501 219.765 21.128C219.765 20.8715 219.733 20.6356 219.67 20.4209C219.607 20.2069 219.512 20.0121 219.387 19.8379C219.258 19.6601 219.109 19.4932 218.938 19.3374C218.768 19.1814 218.576 19.0369 218.364 18.9046C218.147 18.7691 217.92 18.6385 217.681 18.5129C217.441 18.3863 217.191 18.2648 216.931 18.1482C216.684 18.036 216.422 17.9153 216.145 17.7855C215.875 17.6592 215.611 17.534 215.355 17.4102C215.089 17.2803 214.836 17.1414 214.595 16.9936C214.352 16.8443 214.12 16.685 213.898 16.5159L213.897 16.5149C213.673 16.3407 213.471 16.1491 213.29 15.9404C213.109 15.7312 212.95 15.5052 212.813 15.2623C212.675 15.0161 212.571 14.7449 212.502 14.4496C212.433 14.1534 212.399 13.833 212.399 13.4887C212.399 13.1447 212.444 12.8209 212.533 12.5175C212.623 12.213 212.758 11.9303 212.937 11.6685C213.118 11.4057 213.328 11.1721 213.566 10.969C213.803 10.766 214.069 10.5924 214.363 10.4487C214.656 10.3022 214.962 10.1926 215.28 10.1199C215.6 10.0467 215.933 10.0103 216.277 10.0103C216.91 10.0103 217.481 10.1096 217.991 10.3091C218.249 10.4095 218.488 10.5382 218.707 10.6949C218.891 10.8266 219.062 10.9781 219.22 11.1493L220.152 10.0103H220.355V13.9657H220.108L220.094 13.8678C220.034 13.4536 219.947 13.0765 219.833 12.7376C219.719 12.4013 219.578 12.1017 219.41 11.8394L219.41 11.8386C219.245 11.5776 219.058 11.3503 218.85 11.1584C218.644 10.9681 218.415 10.8113 218.164 10.6892L218.164 10.6885C217.911 10.5623 217.643 10.4674 217.36 10.4044C217.077 10.3414 216.776 10.31 216.459 10.31C216.034 10.31 215.661 10.3627 215.341 10.4679C215.025 10.5714 214.76 10.7269 214.545 10.9331L214.544 10.9336C214.33 11.1363 214.169 11.3744 214.061 11.6473C213.953 11.9215 213.899 12.2322 213.899 12.5784C213.899 12.8072 213.929 13.0181 213.991 13.2104C214.051 13.4018 214.143 13.5778 214.266 13.7378C214.391 13.8979 214.537 14.0499 214.702 14.1931C214.869 14.3376 215.056 14.4735 215.261 14.6008C215.471 14.7264 215.692 14.8507 215.925 14.9727C216.156 15.0943 216.398 15.2139 216.651 15.3313C216.908 15.4464 217.167 15.5674 217.426 15.695C217.688 15.8239 217.945 15.9557 218.195 16.09C218.455 16.2245 218.705 16.372 218.943 16.5317C219.182 16.692 219.41 16.8643 219.625 17.0485C219.843 17.2356 220.04 17.4419 220.215 17.6676C220.391 17.8935 220.546 18.1385 220.68 18.4027C220.815 18.6666 220.916 18.9578 220.983 19.2765C221.05 19.5942 221.083 19.9385 221.083 20.3092C221.083 20.7117 221.039 21.0901 220.952 21.4438C220.865 21.7984 220.734 22.1274 220.559 22.4305C220.383 22.7308 220.17 22.9982 219.919 23.2333C219.669 23.468 219.382 23.6697 219.057 23.8386C218.736 24.0036 218.385 24.1276 218.005 24.2103C217.628 24.2923 217.221 24.3333 216.787 24.3333ZM212.443 23.8365L213.236 22.7739C213.194 22.7184 213.152 22.6618 213.112 22.6035C212.971 22.3999 212.846 22.1812 212.737 21.9481C212.628 21.7125 212.533 21.467 212.453 21.212L212.443 21.1805V23.8365ZM219.057 23.4755C218.933 23.5863 218.8 23.6858 218.655 23.774C218.758 23.7324 218.857 23.6867 218.953 23.637C219.259 23.4781 219.53 23.2886 219.764 23.0684C219.998 22.849 220.198 22.5983 220.362 22.3167C220.527 22.0322 220.65 21.723 220.732 21.3899C220.815 21.055 220.856 20.6947 220.856 20.3092C220.856 19.9523 220.824 19.6233 220.761 19.3229C220.698 19.0232 220.603 18.7504 220.478 18.5051C220.35 18.2533 220.203 18.0208 220.037 17.8072C219.871 17.5934 219.684 17.398 219.478 17.2206C219.268 17.0415 219.048 16.8745 218.817 16.7196C218.586 16.5653 218.344 16.422 218.09 16.2905L218.088 16.2898C217.83 16.1513 217.576 16.0209 217.327 15.8981C217.074 15.7737 216.817 15.6534 216.558 15.5378L216.556 15.5371C216.301 15.4183 216.055 15.2972 215.819 15.1734C215.585 15.0505 215.36 14.924 215.145 14.7947L215.144 14.794C214.927 14.6603 214.73 14.5169 214.554 14.3646C214.378 14.2112 214.222 14.048 214.087 13.8759L214.086 13.8751C213.948 13.6952 213.844 13.4961 213.775 13.2789C213.706 13.0623 213.672 12.8287 213.672 12.5784C213.672 12.2039 213.731 11.8658 213.85 11.5645C213.969 11.2618 214.149 10.9968 214.389 10.7699C214.461 10.7003 214.538 10.6361 214.62 10.5774C214.567 10.6006 214.515 10.6254 214.463 10.6514L214.462 10.6517C214.186 10.7869 213.936 10.95 213.713 11.1412C213.49 11.3317 213.294 11.5504 213.124 11.7964C212.958 12.0385 212.834 12.3002 212.751 12.5813C212.668 12.8628 212.626 13.1652 212.626 13.4887C212.626 13.8169 212.658 14.1203 212.723 14.3981C212.787 14.6745 212.883 14.9261 213.011 15.1516C213.141 15.3818 213.291 15.5955 213.462 15.7923C213.632 15.9895 213.824 16.1707 214.035 16.3359C214.251 16.4997 214.477 16.6546 214.713 16.8002C214.951 16.946 215.198 17.0817 215.453 17.2064C215.723 17.3364 215.986 17.4609 216.241 17.5804C216.487 17.6958 216.749 17.8163 217.024 17.9413C217.29 18.0612 217.545 18.1849 217.787 18.3124C218.031 18.4409 218.263 18.5741 218.483 18.7119C218.708 18.8522 218.91 19.0049 219.091 19.1698C219.272 19.3353 219.432 19.5138 219.571 19.7058C219.711 19.9014 219.817 20.1188 219.887 20.3571C219.957 20.5937 219.992 20.8511 219.992 21.128C219.992 21.4668 219.957 21.7802 219.886 22.0687C219.815 22.3584 219.708 22.6216 219.566 22.8586C219.424 23.0929 219.254 23.2987 219.057 23.4755ZM220.128 10.398L219.344 11.3563C219.434 11.4689 219.52 11.5893 219.6 11.7175C219.778 11.9942 219.927 12.3106 220.047 12.6657C220.076 12.7506 220.103 12.8377 220.128 12.927V10.398Z" fill="#2B2A29"/>
</svg>
